<?xml version="1.0" standalone="no"?>
<!DOCTYPE svg PUBLIC "-//W3C//DTD SVG 20010904//EN"
 "http://www.w3.org/TR/2001/REC-SVG-20010904/DTD/svg10.dtd">
<svg version="1.0" xmlns="http://www.w3.org/2000/svg"
 width="2048.000000pt" height="2048.000000pt" viewBox="0 0 2048.000000 2048.000000"
 preserveAspectRatio="xMidYMid meet">

<g transform="translate(0.000000,2048.000000) scale(0.100000,-0.100000)"
fill="#000000" stroke="none">
<path d="M0 10240 l0 -10240 10240 0 10240 0 0 10240 0 10240 -10240 0 -10240
0 0 -10240z m11088 3533 c45 -98 127 -275 183 -393 227 -483 692 -1486 1074
-2315 78 -170 191 -413 250 -540 59 -126 129 -277 155 -335 26 -58 85 -184
130 -280 45 -96 137 -296 205 -445 68 -148 180 -391 250 -540 194 -411 482
-1027 743 -1590 208 -448 300 -645 342 -727 l40 -78 -689 0 c-754 0 -778 2
-953 60 -248 83 -457 240 -598 449 -69 104 -100 164 -245 476 -58 127 -122
265 -142 308 l-36 77 -1171 2 c-644 1 -1248 1 -1343 1 l-172 -1 13 32 c15 34
139 305 278 606 50 107 112 242 138 300 26 58 76 164 110 235 34 72 88 186
120 255 31 69 68 146 81 173 l23 47 598 0 c329 0 598 2 598 4 0 2 -26 59 -59
127 -32 68 -100 214 -151 324 -51 110 -200 432 -332 715 -132 283 -268 576
-303 650 -35 74 -169 362 -298 640 -323 695 -727 1569 -727 1575 0 2 -36 81
-80 174 -44 94 -80 175 -80 181 0 7 316 10 983 10 l983 0 82 -177z m-2177
-1126 c37 -52 495 -924 505 -963 5 -20 -2 -37 -96 -239 -85 -181 -139 -306
-131 -301 5 3 14 19 21 36 8 19 18 29 26 26 8 -3 14 1 14 9 0 8 7 15 15 15 8
0 14 3 13 8 0 4 2 15 7 25 6 15 10 15 23 5 10 -8 13 -9 9 -1 -5 7 5 16 27 23
22 7 42 24 56 47 17 29 23 33 35 23 13 -11 14 -10 9 4 -3 9 -1 17 5 17 6 1 16
2 22 3 6 0 18 11 27 24 11 17 12 22 1 22 -8 0 -6 6 7 16 10 8 14 13 9 10 -6
-2 -11 4 -11 15 0 10 3 19 6 19 3 0 70 -126 149 -280 79 -154 151 -285 160
-292 13 -10 14 -10 4 2 -17 19 -16 33 2 27 8 -4 17 -2 20 3 4 6 -2 10 -12 11
-11 0 -13 3 -5 6 6 2 10 8 8 11 -2 4 3 14 12 22 14 13 15 12 8 -5 -7 -18 -6
-18 14 0 22 20 28 41 8 29 -9 -5 -8 -2 1 10 8 9 21 14 29 11 12 -4 13 -3 2 10
-8 10 -9 15 -1 15 6 0 11 5 11 11 0 5 -6 7 -12 3 -9 -5 -8 -2 1 9 8 10 23 16
35 15 16 -2 20 2 18 15 -2 12 4 21 17 24 12 3 19 9 16 13 -3 4 3 14 12 21 14
12 16 12 9 0 -6 -9 -5 -12 5 -9 9 3 13 15 11 32 -2 17 0 26 6 22 6 -3 12 3 14
15 2 16 12 5 41 -46 l39 -67 -37 -82 c-21 -44 -82 -178 -135 -296 -98 -218
-167 -366 -415 -900 -76 -162 -168 -362 -205 -445 -131 -288 -228 -501 -305
-665 -42 -91 -96 -208 -120 -260 -69 -155 -378 -812 -531 -1129 -51 -106 -118
-230 -148 -275 -185 -276 -488 -474 -810 -531 -74 -12 -200 -15 -751 -15
l-663 0 120 253 c66 138 142 302 170 362 28 61 93 200 145 310 53 110 108 227
123 260 202 437 776 1672 1035 2225 119 256 261 560 315 675 447 964 962 2055
970 2055 3 0 12 -11 21 -23z m10697 -11330 c107 -41 189 -134 218 -245 46
-185 -67 -370 -255 -418 -87 -22 -393 -16 -459 9 -107 40 -189 134 -218 245
-45 180 65 367 246 417 77 21 406 15 468 -8z"/>
<path d="M12310 8784 c-150 -47 -449 -84 -687 -84 -84 0 -144 -4 -148 -10 -3
-5 -40 -10 -81 -10 -48 0 -73 -4 -69 -10 15 -25 -261 -4 -635 47 -162 23 -230
27 -400 26 -150 0 -220 -4 -260 -15 l-55 -16 40 -1 c22 -1 48 -1 58 -2 9 0 15
-5 11 -11 -4 -6 1 -8 16 -3 15 5 20 4 16 -4 -4 -6 0 -14 8 -17 9 -3 13 -11 9
-17 -4 -6 0 -8 11 -4 11 5 25 -2 40 -18 13 -14 29 -25 36 -25 10 0 10 -3 0
-15 -8 -9 -9 -15 -2 -15 6 0 14 5 17 10 4 7 14 6 28 -2 12 -6 30 -12 39 -13
10 -1 21 -5 25 -10 5 -4 1 -6 -8 -2 -13 4 -16 1 -11 -16 3 -12 7 -16 10 -9 2
6 8 12 14 12 6 0 8 -6 5 -13 -3 -8 1 -14 9 -14 7 0 12 3 10 6 -2 3 2 12 10 19
8 7 14 8 14 2 0 -5 7 -10 16 -10 8 0 12 -5 8 -11 -4 -8 1 -9 16 -4 20 6 21 5
9 -8 -8 -8 -18 -14 -24 -13 -5 1 0 -2 13 -8 12 -6 20 -16 18 -23 -4 -8 3 -13
17 -13 17 0 19 2 7 10 -19 12 -10 19 14 11 17 -7 17 -8 2 -23 -20 -21 -21 -32
0 -24 8 3 12 2 9 -3 -3 -5 -1 -12 4 -15 5 -3 11 3 14 14 7 26 37 16 37 -12 0
-10 5 -16 10 -13 6 3 10 -1 10 -11 0 -13 6 -15 30 -10 26 5 30 2 30 -15 0 -19
-2 -20 -17 -8 -15 13 -16 11 -9 -13 6 -27 0 -34 -27 -29 -5 1 -6 -3 -2 -9 4
-6 12 -7 24 0 12 6 22 5 31 -3 10 -9 11 -9 6 1 -10 16 2 15 20 -2 12 -13 11
-15 -6 -21 -11 -3 -20 -11 -20 -17 0 -6 6 -6 15 2 8 7 15 9 15 5 0 -4 6 -3 13
3 8 7 18 7 27 2 12 -8 12 -10 1 -10 -7 0 -11 -6 -7 -15 3 -8 -2 -21 -10 -30
-9 -8 -11 -15 -6 -15 5 0 17 9 26 19 13 15 14 20 4 24 -8 3 -5 6 7 6 29 1 49
-34 34 -60 -10 -20 -10 -20 14 -5 25 17 39 13 30 -10 -3 -9 2 -14 13 -15 11
-1 6 -4 -10 -8 -16 -3 -31 -13 -33 -21 -3 -9 -1 -11 4 -5 4 6 15 10 23 9 21
-1 68 -23 52 -23 -7 -1 -10 -6 -7 -12 4 -6 8 -24 9 -42 2 -24 0 -27 -7 -15 -9
14 -13 13 -31 -7 -12 -13 -35 -25 -51 -28 -17 -2 229 -5 545 -6 l575 -1 69
-153 c297 -650 316 -689 383 -775 92 -119 232 -244 348 -311 70 -41 204 -91
298 -113 88 -20 122 -22 721 -25 345 -2 626 -1 624 4 -4 8 -40 86 -82 178 -71
154 -107 245 -100 256 4 7 3 9 -3 6 -5 -3 -49 74 -97 171 -49 97 -108 206
-131 242 -94 141 -473 460 -729 613 -182 109 -485 261 -576 290 -9 3 -33 45
-55 93 -21 49 -62 140 -91 202 -58 122 -55 121 -134 96z m-873 -128 c4 -3 -12
-6 -35 -6 -22 0 -43 4 -46 9 -6 9 72 7 81 -3z m40 -2 c-3 -3 -12 -4 -19 -1 -8
3 -5 6 6 6 11 1 17 -2 13 -5z m-870 -250 c-3 -3 -12 -4 -19 -1 -8 3 -5 6 6 6
11 1 17 -2 13 -5z m56 -58 c3 3 10 -4 17 -15 7 -14 7 -21 0 -21 -5 0 -10 5
-10 10 0 6 -6 10 -14 10 -8 0 -17 7 -20 16 -5 13 -4 14 7 6 8 -7 16 -9 20 -6z
m164 -142 c-3 -3 -12 -4 -19 -1 -8 3 -5 6 6 6 11 1 17 -2 13 -5z m1873 -39 c7
-9 8 -15 2 -15 -5 0 -12 7 -16 15 -3 8 -4 15 -2 15 2 0 9 -7 16 -15z m-1776
-90 c-3 -6 -14 -11 -25 -12 -16 -1 -18 1 -10 11 13 16 41 17 35 1z m-54 1 c0
-2 -7 -7 -16 -10 -8 -3 -12 -2 -9 4 6 10 25 14 25 6z m2641 -1083 c13 -16 12
-17 -3 -4 -10 7 -18 15 -18 17 0 8 8 3 21 -13z m43 -25 c-4 -7 8 -12 27 -10 3
0 11 -8 18 -20 12 -20 12 -20 -19 -1 -40 23 -55 40 -35 40 8 0 12 -4 9 -9z
m586 -278 c0 -5 -4 -10 -9 -10 -6 0 -13 5 -16 10 -3 6 1 10 9 10 9 0 16 -4 16
-10z"/>
<path d="M11278 8713 c6 -2 18 -2 25 0 6 3 1 5 -13 5 -14 0 -19 -2 -12 -5z"/>
<path d="M11382 8705 c3 -3 25 -8 49 -11 32 -3 40 -2 29 6 -15 10 -88 14 -78
5z"/>
<path d="M9764 8651 c-106 -52 -187 -114 -240 -185 -40 -53 -249 -455 -241
-463 2 -2 58 0 125 4 l122 6 51 106 c129 266 269 564 266 567 -2 2 -39 -14
-83 -35z"/>
<path d="M10386 8469 c6 -8 13 -21 16 -28 4 -13 5 -13 10 0 4 9 -2 21 -15 29
-19 11 -20 11 -11 -1z"/>
<path d="M10528 8353 c7 -3 16 -2 19 1 4 3 -2 6 -13 5 -11 0 -14 -3 -6 -6z"/>
<path d="M10715 8209 c-4 -6 -5 -12 -2 -15 2 -3 7 2 10 11 7 17 1 20 -8 4z"/>
<path d="M10780 8121 c0 -5 -10 -7 -22 -4 -18 4 -20 3 -12 -6 6 -7 18 -13 25
-14 8 -2 20 -6 27 -11 11 -7 12 -4 3 11 -6 11 -7 23 -4 27 3 3 1 6 -5 6 -7 0
-12 -4 -12 -9z"/>
<path d="M10750 8060 c0 -13 18 -22 24 -11 3 5 -1 11 -9 15 -8 3 -15 1 -15 -4z"/>
<path d="M10613 8013 c9 -2 25 -2 35 0 9 3 1 5 -18 5 -19 0 -27 -2 -17 -5z"/>
<path d="M13785 7680 c3 -5 8 -10 11 -10 2 0 4 5 4 10 0 6 -5 10 -11 10 -5 0
-7 -4 -4 -10z"/>
<path d="M14089 7164 c11 -17 18 -34 14 -38 -3 -3 -1 -6 5 -6 18 0 14 12 -14
45 l-26 30 21 -31z"/>
<path d="M14140 7130 c6 -11 13 -20 16 -20 2 0 0 9 -6 20 -6 11 -13 20 -16 20
-2 0 0 -9 6 -20z"/>
<path d="M8450 8619 c0 -5 5 -7 10 -4 6 3 10 8 10 11 0 2 -4 4 -10 4 -5 0 -10
-5 -10 -11z"/>
<path d="M8160 8500 c-8 -5 -10 -10 -5 -10 6 0 17 5 25 10 8 5 11 10 5 10 -5
0 -17 -5 -25 -10z"/>
<path d="M8082 8463 c-6 -2 -10 -9 -7 -14 4 -5 -1 -6 -9 -3 -9 3 -21 -5 -31
-23 -9 -15 -14 -20 -11 -10 5 16 3 16 -27 3 -135 -57 -116 -33 -244 -316 -258
-568 -359 -730 -600 -961 -115 -109 -215 -183 -370 -272 -114 -65 -348 -167
-483 -209 l-75 -23 325 -3 c412 -3 856 12 928 32 65 18 189 69 262 107 53 28
94 79 70 87 -6 2 -7 9 -3 15 3 7 -3 4 -14 -6 -20 -17 -21 -17 -27 0 -6 14 -9
15 -16 4 -4 -8 -15 -11 -24 -8 -12 5 -16 0 -16 -17 0 -13 -7 -27 -16 -30 -14
-5 -15 -4 -4 9 8 10 9 15 2 15 -6 0 -16 -10 -23 -21 -9 -17 -13 -19 -20 -8 -4
8 -3 19 4 28 10 12 8 14 -10 9 -13 -4 -23 -2 -23 3 0 5 -4 9 -10 9 -5 0 -10
-9 -10 -20 0 -11 -4 -20 -10 -20 -6 0 -6 9 -1 23 5 12 16 21 24 21 12 -1 14 3
6 23 -6 16 -5 22 1 18 6 -3 10 2 10 12 0 14 2 15 9 4 6 -9 10 -3 13 20 6 38
-1 71 -12 64 -5 -3 -12 0 -16 6 -4 7 -3 9 3 6 18 -11 35 20 29 50 -3 15 -2 51
3 78 7 40 9 43 10 18 1 -37 18 -46 18 -10 1 46 3 57 13 57 5 0 9 -3 9 -7 -3
-21 2 -33 16 -33 8 0 15 4 15 10 0 5 -3 9 -7 9 -25 -4 -23 4 6 25 22 16 28 26
19 30 -7 3 -4 5 7 3 17 -3 20 2 20 30 0 18 -3 33 -7 33 -5 0 -8 -7 -8 -15 0
-8 -5 -15 -11 -15 -5 0 -7 5 -4 10 3 6 1 10 -4 10 -17 0 -13 -18 7 -29 14 -8
14 -11 2 -12 -8 -1 -19 -1 -23 0 -5 1 -6 -3 -2 -9 4 -7 -3 -9 -20 -6 -35 6
-45 16 -17 16 19 0 28 12 20 23 -5 7 33 39 39 34 8 -9 63 21 63 34 0 8 -5 7
-15 -1 -11 -9 -15 -9 -15 -1 0 6 6 14 13 17 7 2 12 19 12 39 -1 19 2 35 7 35
4 0 8 -12 9 -27 0 -24 1 -25 8 -8 4 11 6 37 5 58 -2 21 1 35 6 32 5 -3 11 -1
15 5 4 6 10 8 15 5 4 -3 13 2 20 10 8 9 8 15 2 15 -6 0 -12 -5 -14 -12 -3 -7
-11 2 -18 19 -8 17 -17 30 -20 28 -3 -1 -12 4 -20 13 -13 14 -12 15 5 8 33
-13 55 -15 55 -6 0 5 8 11 18 14 9 2 -1 3 -23 0 -27 -3 -35 -1 -25 5 8 5 17 8
21 5 12 -7 48 46 42 62 -8 22 13 16 31 -8 16 -23 16 -23 6 -1 -13 28 -13 66 0
79 6 6 13 21 15 34 2 13 8 26 12 29 5 3 8 15 9 26 1 35 30 119 37 108 4 -6 3
-23 -3 -37 -7 -21 -6 -26 5 -26 8 0 15 5 15 12 0 6 3 9 6 6 3 -4 1 -16 -6 -27
-15 -28 10 -29 35 -1 18 20 18 21 -1 14 -19 -7 -19 -7 0 14 10 12 23 19 29 15
6 -4 7 -1 2 6 -5 9 -10 10 -18 2 -17 -17 -31 -13 -17 5 11 12 11 15 -1 12 -8
-2 -12 3 -10 12 2 8 4 24 6 35 1 11 3 23 4 27 0 3 9 4 20 1 14 -3 20 2 23 21
3 16 1 23 -5 19 -6 -4 -8 3 -4 18 4 13 7 28 7 32 0 4 8 7 17 5 10 -2 18 3 19
10 1 6 3 15 4 20 1 4 3 16 4 27 2 34 17 66 27 59 5 -3 6 -10 3 -16 -4 -7 -2
-8 5 -4 9 6 9 11 1 21 -14 16 -3 78 11 69 5 -3 7 -10 4 -15 -4 -5 -2 -9 3 -9
6 0 13 8 16 17 4 10 4 14 0 10 -4 -4 -16 0 -26 10 -10 9 -18 14 -19 12 0 -2
-2 -12 -4 -23 -2 -10 -9 -24 -16 -30 -9 -8 -11 -7 -6 6 3 10 2 20 -3 23 -6 4
-10 -1 -10 -9 0 -9 -5 -16 -10 -16 -7 0 -7 6 -1 18 22 37 39 52 53 47 9 -4 15
0 15 9 0 8 -4 13 -8 10 -4 -2 -13 4 -18 15 -8 14 -8 23 2 33 13 14 16 62 5 74
-7 7 -13 -18 -9 -39 1 -4 -5 -17 -13 -28 -11 -17 -14 -18 -19 -4 -4 8 -2 26 3
39 9 26 1 28 -43 11 -13 -6 -16 -3 -11 9 7 17 6 17 -14 9z m48 -49 c0 -2 -11
-3 -24 -2 -14 1 -23 5 -20 9 4 7 44 0 44 -7z m0 -34 c-8 -5 -19 -10 -25 -10
-5 0 -3 5 5 10 8 5 20 10 25 10 6 0 3 -5 -5 -10z m4 -29 c-16 -16 -47 -17 -51
-1 -4 13 -3 13 6 0 6 -9 11 -10 11 -3 0 6 8 13 18 15 21 5 28 0 16 -11z m-2
-28 c-6 -2 -9 -10 -6 -15 4 -7 2 -8 -5 -4 -13 9 -5 26 12 25 9 0 8 -2 -1 -6z
m28 -115 c0 -15 -5 -28 -11 -28 -7 0 -9 -9 -6 -23 4 -12 2 -28 -2 -36 -6 -9
-10 -5 -15 14 -5 18 -2 33 7 44 15 17 12 41 -4 41 -6 0 -8 -4 -5 -8 3 -5 -1
-9 -9 -9 -13 0 -13 3 0 17 24 26 45 21 45 -12z m-60 -99 c0 -5 -4 -9 -10 -9
-5 0 -10 7 -10 16 0 8 5 12 10 9 6 -3 10 -10 10 -16z m-27 -95 c-3 -8 -6 -14
-7 -12 -1 2 -7 11 -14 20 -11 14 -10 16 7 11 12 -3 17 -11 14 -19z m-76 -126
c-3 -8 -6 -5 -6 6 -1 11 2 17 5 13 3 -3 4 -12 1 -19z m-22 -58 c1 -14 -2 -17
-10 -10 -7 5 -14 7 -17 4 -3 -3 -9 -1 -13 5 -3 7 3 11 15 11 14 0 19 4 14 13
-4 6 -3 9 1 4 5 -4 9 -16 10 -27z m-9 -46 c-3 -9 -6 -23 -6 -32 -1 -14 -2 -14
-12 2 -8 15 -8 21 0 24 7 2 10 8 6 13 -3 5 0 9 6 9 7 0 9 -7 6 -16z m-26 -69
c0 -8 -2 -15 -4 -15 -2 0 -6 7 -10 15 -3 8 -1 15 4 15 6 0 10 -7 10 -15z m-30
-66 c0 -5 -4 -9 -10 -9 -5 0 -10 7 -10 16 0 8 5 12 10 9 6 -3 10 -10 10 -16z
m-40 -134 c0 -12 -19 -12 -23 0 -4 9 -1 12 9 8 7 -3 14 -7 14 -8z m-35 -5 c3
-5 1 -10 -4 -10 -6 0 -11 5 -11 10 0 6 2 10 4 10 3 0 8 -4 11 -10z m-3 -51
c-4 -4 -17 -10 -29 -13 -18 -6 -20 -3 -16 13 3 11 12 21 22 23 17 4 34 -13 23
-23z m-44 -64 c0 -14 -4 -25 -8 -25 -5 0 -7 8 -5 18 2 9 4 20 4 25 2 18 9 4 9
-18z m-153 -134 c-3 -6 3 -14 12 -20 10 -6 13 -11 7 -11 -15 0 -36 25 -27 33
10 10 15 8 8 -2z m94 -44 c0 -9 -2 -8 -6 1 -2 6 -10 9 -15 6 -7 -4 -8 -2 -4 5
9 13 26 5 25 -12z m-59 -7 c0 -5 -5 -10 -11 -10 -5 0 -7 5 -4 10 3 6 8 10 11
10 2 0 4 -4 4 -10z m-30 -77 c0 -32 -4 -53 -8 -46 -7 11 -4 103 4 103 2 0 4
-26 4 -57z m-44 -48 c0 -14 -4 -25 -8 -25 -10 0 -10 13 -2 34 9 23 12 20 10
-9z m28 -41 c3 -8 2 -12 -4 -9 -6 3 -10 10 -10 16 0 14 7 11 14 -7z m23 -6
c-3 -8 -6 -5 -6 6 -1 11 2 17 5 13 3 -3 4 -12 1 -19z m-67 -92 c0 -2 -7 -7
-16 -10 -8 -3 -12 -2 -9 4 6 10 25 14 25 6z m10 -31 c0 -8 -2 -15 -4 -15 -2 0
-6 7 -10 15 -3 8 -1 15 4 15 6 0 10 -7 10 -15z m186 -104 c-5 -8 -11 -7 -20 2
-10 9 -11 14 -2 19 14 9 30 -7 22 -21z m-76 -26 c0 -9 -6 -12 -15 -9 -8 4 -12
10 -9 15 8 14 24 10 24 -6z"/>
<path d="M8168 8113 c7 -3 16 -2 19 1 4 3 -2 6 -13 5 -11 0 -14 -3 -6 -6z"/>
<path d="M8080 7981 c0 -6 5 -13 10 -16 6 -3 10 1 10 9 0 9 -4 16 -10 16 -5 0
-10 -4 -10 -9z"/>
<path d="M8110 7980 c0 -5 5 -10 10 -10 6 0 10 5 10 10 0 6 -4 10 -10 10 -5 0
-10 -4 -10 -10z"/>
<path d="M8116 7951 c-4 -6 -14 -8 -24 -5 -14 5 -14 4 1 -6 14 -9 22 -9 30 -1
6 6 8 13 5 16 -3 4 -9 2 -12 -4z"/>
<path d="M8115 7880 c-3 -6 1 -7 9 -4 18 7 21 14 7 14 -6 0 -13 -4 -16 -10z"/>
<path d="M8010 7846 c0 -9 5 -16 10 -16 6 0 10 4 10 9 0 6 -4 13 -10 16 -5 3
-10 -1 -10 -9z"/>
<path d="M7976 7725 c-3 -9 -6 -22 -5 -28 0 -7 5 -1 10 12 5 13 8 26 5 28 -2
2 -6 -3 -10 -12z"/>
<path d="M7830 7345 c0 -8 4 -15 8 -15 5 0 9 7 9 15 0 8 -4 15 -9 15 -4 0 -8
-7 -8 -15z"/>
<path d="M7753 7194 c0 -18 2 -22 8 -13 11 18 11 39 0 39 -5 0 -8 -12 -8 -26z"/>
<path d="M7668 7036 c-2 -23 0 -32 8 -29 12 4 14 63 3 63 -4 0 -9 -15 -11 -34z"/>
<path d="M7680 6869 c0 -5 5 -7 10 -4 6 3 10 8 10 11 0 2 -4 4 -10 4 -5 0 -10
-5 -10 -11z"/>
<path d="M7829 6840 c-31 -26 -15 -26 18 0 14 11 21 20 15 20 -5 0 -20 -9 -33
-20z"/>
<path d="M19462 1178 c-21 -21 -14 -57 13 -70 22 -10 29 -9 47 10 19 18 20 25
10 47 -13 27 -49 34 -70 13z"/>
<path d="M19225 1076 c-17 -7 -36 -20 -43 -29 -11 -13 -10 -18 9 -30 19 -14
25 -14 55 0 27 13 39 14 59 5 44 -20 30 -37 -31 -37 -51 0 -58 -3 -86 -34 -24
-27 -29 -39 -24 -65 12 -64 91 -97 144 -60 12 8 22 10 22 5 0 -6 16 -11 35
-11 l35 0 0 105 c0 92 -2 107 -20 125 -40 40 -100 50 -155 26z m105 -164 c0
-26 -20 -42 -52 -42 -30 0 -44 19 -34 45 3 10 19 15 46 15 32 0 40 -4 40 -18z"/>
<path d="M19460 950 l0 -130 35 0 35 0 0 130 0 130 -35 0 -35 0 0 -130z"/>
</g>
</svg>
